
<svg width="45px" height="36px" viewBox="0 0 500 500" version="1.1" xmlns="http://www.w3.org/2000/svg" xmlns:xlink="http://www.w3.org/1999/xlink">
    <title>Artboard Copy 2@3x</title>
    <g id="Artboard-Copy-2" stroke="none" stroke-width="1" fill="none" fill-rule="evenodd">
        <g id="Group-2" transform="translate(104.000000, 11.000000)">
            <rect id="Rectangle" fill="#FFFFFF" x="121" y="268" width="50" height="98"></rect>
            <path d="M147.5,12.5 C184.779221,12.5 218.529221,27.6103897 242.959415,52.0405845 C267.38961,76.4707794 282.5,110.220779 282.5,147.5 C282.5,176.933126 273.083532,204.167791 257.092762,226.350426 C240.798161,252.319272 228.900544,275.728446 220.880792,297.22138 C213.935458,315.834875 208.286741,334.594637 203.93232,353.5 L203.93232,353.5 L90.8827306,353.5 C89.3378914,338.052176 84.8874128,320.235383 77.3640259,300.072706 C68.8531163,277.263468 57.0266697,254.437989 41.8492614,231.614047 C41.7455096,231.458024 41.6416972,231.302145 41.5345119,231.149083 C23.2449466,207.869873 12.5,178.939325 12.5,147.5 C12.5,110.220779 27.6103897,76.4707794 52.0405845,52.0405845 C76.4707794,27.6103897 110.220779,12.5 147.5,12.5 Z" id="Combined-Shape" stroke="#FFFFFF" stroke-width="25"></path>
            <line x1="135.576156" y1="271.117879" x2="85.6222075" y2="121.146664" id="Path-16" stroke="#FFFFFF" stroke-width="16"></line>
            <line x1="156.968429" y1="269.918927" x2="209.935679" y2="120.985275" id="Path-16" stroke="#FFFFFF" stroke-width="16"></line>
            <path d="M120.738609,136.753169 L122.642658,136.919701 L122.282117,142.400405 L120.738609,136.753169 Z M107.621604,119.102255 L109.993757,127.783033 L106.264614,127.456986 L107.621604,119.102255 Z M145.279036,114.711817 L148.368902,131.138752 L139.159,130.333 L145.279036,114.711817 Z M167.69617,126.834623 L168.557345,132.904481 L166.87143,132.757025 L167.69617,126.834623 Z" id="Path-17" stroke="#FFFFFF" stroke-width="8"></path>
        </g>
        <path d="M177.359625,462 L323,462 L323,462 L289.818182,482 L210.181818,482 L177.308003,462.185646 C177.260702,462.157136 177.245469,462.095679 177.273979,462.048378 C177.292075,462.018355 177.32457,462 177.359625,462 Z" id="Rectangle" fill="#FFFFFF"></path>
        <polygon id="Rectangle" fill="#FFFFFF" points="218 482 281 482 266.681818 497 232.318182 497"></polygon>
        <rect id="Rectangle-Copy" fill="#FFFFFF" x="171" y="392" width="160" height="20" rx="10"></rect>
        <rect id="Rectangle-Copy" fill="#FFFFFF" x="171" y="427" width="160" height="20" rx="10"></rect>
    </g>
</svg>