<svg width="30px" height="20px" viewBox="0 0 500 500" version="1.1" xmlns="http://www.w3.org/2000/svg" xmlns:xlink="http://www.w3.org/1999/xlink">
    <g id="Artboard-Copy-3" stroke="none" stroke-width="1" fill="none" fill-rule="evenodd">
        <g id="Group-2" transform="translate(104.000000, 3.000000)" fill="#f0f0f1">
            <path d="M73.3596249,453 L219,453 L219,453 L185.818182,473 L106.181818,473 L73.3080029,453.185646 C73.2607022,453.157136 73.2454693,453.095679 73.2739793,453.048378 C73.2920752,453.018355 73.3245704,453 73.3596249,453 Z" id="Rectangle"></path>
            <polygon id="Rectangle" points="114 473 177 473 162.681818 488 128.318182 488"></polygon>
            <rect id="Rectangle-Copy" x="67" y="383" width="160" height="20" rx="10"></rect>
            <rect id="Rectangle-Copy" x="67" y="418" width="160" height="20" rx="10"></rect>
            <path d="M147.5,0 C228.962001,0 295,66.0379994 295,147.5 C295,179.662667 284.705912,209.421021 267.232762,233.660036 C251.900611,258.141938 240.355055,280.786474 232.592075,301.591262 C224.654198,322.86477 218.45684,344.334349 214,366 L171,366 L171,266 L165.970231,266 L211.211,143.763 L211.25013,143.635186 L211.257,143.637 L211.211,143.763 L208.911156,151.285624 L221.343118,155.086456 C223.455728,155.732346 225.691934,154.543334 226.337824,152.430724 C226.983714,150.318114 225.794702,148.081908 223.682092,147.436018 L223.682092,147.436018 L211.257,143.637 L216.791637,128.686368 C216.795686,128.675429 216.799705,128.66448 216.803694,128.653519 C217.99773,125.372931 216.370368,121.753237 213.161047,120.452424 L212.939793,120.367357 L212.881234,120.346043 C209.605287,119.153696 205.98806,120.759255 204.658852,123.952042 L204.5718,124.172178 L198.546,140.242 L198.569508,140.260687 L198.244,141.049 L198.546,140.242 L195.751485,138.098761 C192.888464,130.541605 191.022779,125.457724 190.15443,122.847116 L190.095466,122.668994 C188.83385,118.838582 185.548395,120.203541 185.548395,120.203541 C185.548395,120.203541 183.555904,125.247827 179.570922,135.336397 C176.099373,112.455679 174.363598,100.453706 174.363598,99.3304799 C174.363598,97.6456401 169.395283,95.1820354 168.485072,99.3304799 C167.878265,102.09611 165.346848,118.611667 160.890822,148.877151 C156.058901,122.570282 153.198671,108.112649 152.310131,105.504252 C150.977321,101.591658 149.398724,101.01532 147.5,101.01532 C146.608504,101.01532 143.866859,107.417869 141.208975,114.210669 L140.9344,114.914518 C140.797341,115.266892 140.660685,115.619756 140.524698,115.972277 L140.190245,116.842049 C137.583382,123.642524 135.31005,130.058067 135.31005,130.058067 C135.31005,130.058067 135.259134,130.013202 135.166565,129.93102 L135.036082,129.814974 C134.56333,129.393831 133.542628,128.477439 132.482327,127.480003 L132.146771,127.162812 L132.146771,127.162812 L131.78654,126.818522 C131.368624,126.416573 130.961969,126.016122 130.598326,125.643039 C128.819637,123.818175 125.658987,126.057107 125.522408,127.419015 L125.517831,127.508455 L125.517231,127.583124 C125.50022,128.81954 125.12174,137.646749 124.381788,154.064751 C115.679744,122.409054 110.905445,105.539759 110.058891,103.456867 C108.78906,100.33253 108.163136,99.3304799 106.761695,99.3304799 C105.885794,99.3304799 104.854718,99.8240853 103.668466,100.811296 L103.429146,101.01532 L98.5754462,134.276421 L95.9443843,134.276421 L98.5754462,141.140329 L103.429146,141.140329 C104.587067,141.140329 106.039651,134.678872 107.786899,121.755958 C116.643946,154.85834 121.813363,172.802437 123.29515,175.588251 C125.517831,179.766972 130.598326,177.933313 130.598326,175.588251 C130.598326,174.532974 130.831868,166.557219 131.210947,158.228483 L131.262346,157.11647 C131.274029,156.867582 131.285839,156.618639 131.297772,156.369817 L131.33394,155.623883 C131.358296,155.127065 131.383137,154.631423 131.408444,154.138349 L131.446752,153.400839 C131.891266,144.945625 132.471765,137.461875 133.092451,138.098761 C134.433282,139.474587 137.150977,140.592628 138.695197,139.427606 C139.724678,138.650924 142.659612,131.490854 147.5,117.947397 C155.135647,152.794091 158.953471,171.055063 158.953471,172.730313 C158.953471,175.243188 162.764405,176.152078 164.5,174.098761 C165.657064,172.729883 168.12257,157.199781 171.896519,127.508455 C173.987936,144.307089 175.386006,153.561323 176.090728,155.271157 C177.14781,157.835908 179.570922,157.835908 181.297734,155.271157 C182.448941,153.561323 184.288278,146.916403 186.815744,135.336397 C189.002225,141.686871 190.095466,144.862108 190.095466,144.862108 C190.095466,144.862108 191.871534,145.562538 195.42367,146.963396 L195.751485,147.092676 L198.243,141.051 L151.397929,266 L121,266 L121,366 L79,366 C79.1091998,349.101479 74.6601143,328.582342 65.6527435,304.442588 C57.4577613,282.480036 46.0536885,260.511047 31.4405251,238.535622 C11.7448217,213.465486 0,181.854318 0,147.5 C0,66.0379994 66.0379994,0 147.5,0 Z M84.4202737,119.799019 L84.1947874,119.872151 L84.1477385,119.888351 C80.8469161,121.024915 79.0466179,124.556677 80.0305632,127.877089 L80.1019799,128.103123 L82.234,134.456 L70.2762296,134.456564 C68.4076662,134.456564 66.8811032,135.920842 66.7814085,137.764529 L66.7762296,137.956564 C66.7762296,139.889561 68.343233,141.456564 70.2762296,141.456564 L70.2762296,141.456564 L84.584,141.456 L82.234,134.456 L82.7762296,134.456564 L84.7762296,141.456564 L84.584,141.456 L126.401443,266 L140.492919,266 L92.4236894,123.913147 C92.4199664,123.902142 92.4162138,123.891148 92.4124316,123.880163 C91.2758064,120.579164 87.733085,118.790227 84.4202737,119.799019 Z" id="Combined-Shape"></path>
        </g>
    </g>
</svg>